<svg id="visual" viewBox="0 0 2000 150" width="2000" height="150" xmlns="http://www.w3.org/2000/svg" xmlns:xlink="http://www.w3.org/1999/xlink" version="1.1"><path d="M0 97L10.8 100.7C21.7 104.3 43.3 111.7 64.8 109.5C86.3 107.3 107.7 95.7 129.2 88.7C150.7 81.7 172.3 79.3 193.8 79.5C215.3 79.7 236.7 82.3 258.2 75.3C279.7 68.3 301.3 51.7 322.8 55.2C344.3 58.7 365.7 82.3 387.2 84C408.7 85.7 430.3 65.3 451.8 64.7C473.3 64 494.7 83 516.2 81.8C537.7 80.7 559.3 59.3 580.8 54.7C602.3 50 623.7 62 645.2 72.2C666.7 82.3 688.3 90.7 709.8 90.7C731.3 90.7 752.7 82.3 774.2 76.2C795.7 70 817.3 66 838.8 60.8C860.3 55.7 881.7 49.3 903.2 49.5C924.7 49.7 946.3 56.3 967.8 66.8C989.3 77.3 1010.7 91.7 1032.2 86.8C1053.7 82 1075.3 58 1096.8 58.2C1118.3 58.3 1139.7 82.7 1161.2 82.7C1182.7 82.7 1204.3 58.3 1225.8 46.2C1247.3 34 1268.7 34 1290.2 47.7C1311.7 61.3 1333.3 88.7 1354.8 100.2C1376.3 111.7 1397.7 107.3 1419.2 94.7C1440.7 82 1462.3 61 1483.8 60.5C1505.3 60 1526.7 80 1548.2 79.5C1569.7 79 1591.3 58 1612.8 57.8C1634.3 57.7 1655.7 78.3 1677.2 77.2C1698.7 76 1720.3 53 1741.8 46C1763.3 39 1784.7 48 1806.2 57.5C1827.7 67 1849.3 77 1870.8 86.8C1892.3 96.7 1913.7 106.3 1935.2 108.8C1956.7 111.3 1978.3 106.7 1989.2 104.3L2000 102L2000 0L1989.2 0C1978.3 0 1956.7 0 1935.2 0C1913.7 0 1892.3 0 1870.8 0C1849.3 0 1827.7 0 1806.2 0C1784.7 0 1763.3 0 1741.8 0C1720.3 0 1698.7 0 1677.2 0C1655.7 0 1634.3 0 1612.8 0C1591.3 0 1569.7 0 1548.2 0C1526.7 0 1505.3 0 1483.8 0C1462.3 0 1440.7 0 1419.2 0C1397.7 0 1376.3 0 1354.8 0C1333.3 0 1311.7 0 1290.2 0C1268.7 0 1247.3 0 1225.8 0C1204.3 0 1182.7 0 1161.2 0C1139.7 0 1118.3 0 1096.8 0C1075.3 0 1053.7 0 1032.2 0C1010.7 0 989.3 0 967.8 0C946.3 0 924.7 0 903.2 0C881.7 0 860.3 0 838.8 0C817.3 0 795.7 0 774.2 0C752.7 0 731.3 0 709.8 0C688.3 0 666.7 0 645.2 0C623.7 0 602.3 0 580.8 0C559.3 0 537.7 0 516.2 0C494.7 0 473.3 0 451.8 0C430.3 0 408.7 0 387.2 0C365.7 0 344.3 0 322.8 0C301.3 0 279.7 0 258.2 0C236.7 0 215.3 0 193.8 0C172.3 0 150.7 0 129.2 0C107.7 0 86.3 0 64.8 0C43.3 0 21.7 0 10.8 0L0 0Z" fill="#f6e7c1" stroke-linecap="round" stroke-linejoin="miter"></path></svg>