<svg id="visual" viewBox="0 0 2000 200" width="2000" height="200" xmlns="http://www.w3.org/2000/svg" xmlns:xlink="http://www.w3.org/1999/xlink" version="1.1"><rect x="0" y="0" width="2000" height="200" fill="#fff"></rect><path d="M0 143L10.8 127.3C21.7 111.7 43.3 80.3 64.8 67.7C86.3 55 107.7 61 129.2 72C150.7 83 172.3 99 193.8 95.3C215.3 91.7 236.7 68.3 258.2 63.2C279.7 58 301.3 71 322.8 86.2C344.3 101.3 365.7 118.7 387.2 115.8C408.7 113 430.3 90 451.8 75.2C473.3 60.3 494.7 53.7 516.2 67.7C537.7 81.7 559.3 116.3 580.8 134.7C602.3 153 623.7 155 645.2 142.2C666.7 129.3 688.3 101.7 709.8 95.7C731.3 89.7 752.7 105.3 774.2 112C795.7 118.7 817.3 116.3 838.8 107.8C860.3 99.3 881.7 84.7 903.2 74.2C924.7 63.7 946.3 57.3 967.8 54.2C989.3 51 1010.7 51 1032.2 59.7C1053.7 68.3 1075.3 85.7 1096.8 84.3C1118.3 83 1139.7 63 1161.2 61.7C1182.7 60.3 1204.3 77.7 1225.8 94.3C1247.3 111 1268.7 127 1290.2 124.8C1311.7 122.7 1333.3 102.3 1354.8 98.2C1376.3 94 1397.7 106 1419.2 118.2C1440.7 130.3 1462.3 142.7 1483.8 139.8C1505.3 137 1526.7 119 1548.2 105.7C1569.7 92.3 1591.3 83.7 1612.8 89.5C1634.3 95.3 1655.7 115.7 1677.2 110.7C1698.7 105.7 1720.3 75.3 1741.8 66.2C1763.3 57 1784.7 69 1806.2 83.5C1827.7 98 1849.3 115 1870.8 119.8C1892.3 124.7 1913.7 117.3 1935.2 107.7C1956.7 98 1978.3 86 1989.2 80L2000 74L2000 201L1989.2 201C1978.3 201 1956.7 201 1935.2 201C1913.7 201 1892.3 201 1870.8 201C1849.3 201 1827.7 201 1806.2 201C1784.7 201 1763.3 201 1741.8 201C1720.3 201 1698.7 201 1677.2 201C1655.7 201 1634.3 201 1612.8 201C1591.3 201 1569.7 201 1548.2 201C1526.7 201 1505.3 201 1483.8 201C1462.3 201 1440.7 201 1419.2 201C1397.7 201 1376.3 201 1354.8 201C1333.3 201 1311.7 201 1290.2 201C1268.7 201 1247.3 201 1225.8 201C1204.3 201 1182.7 201 1161.2 201C1139.7 201 1118.3 201 1096.8 201C1075.3 201 1053.7 201 1032.2 201C1010.7 201 989.3 201 967.8 201C946.3 201 924.7 201 903.2 201C881.7 201 860.3 201 838.8 201C817.3 201 795.7 201 774.2 201C752.7 201 731.3 201 709.8 201C688.3 201 666.7 201 645.2 201C623.7 201 602.3 201 580.8 201C559.3 201 537.7 201 516.2 201C494.7 201 473.3 201 451.8 201C430.3 201 408.7 201 387.2 201C365.7 201 344.3 201 322.8 201C301.3 201 279.7 201 258.2 201C236.7 201 215.3 201 193.8 201C172.3 201 150.7 201 129.2 201C107.7 201 86.3 201 64.8 201C43.3 201 21.7 201 10.8 201L0 201Z" fill="#f6e4d4" stroke-linecap="round" stroke-linejoin="miter"></path></svg>