<svg id="visual" viewBox="0 0 2000 150" width="2000" height="150" xmlns="http://www.w3.org/2000/svg" xmlns:xlink="http://www.w3.org/1999/xlink" version="1.1"><path d="M0 51L10.8 47.3C21.7 43.7 43.3 36.3 64.8 38.5C86.3 40.7 107.7 52.3 129.2 59.3C150.7 66.3 172.3 68.7 193.8 68.5C215.3 68.3 236.7 65.7 258.2 72.7C279.7 79.7 301.3 96.3 322.8 92.8C344.3 89.3 365.7 65.7 387.2 64C408.7 62.3 430.3 82.7 451.8 83.3C473.3 84 494.7 65 516.2 66.2C537.7 67.3 559.3 88.7 580.8 93.3C602.3 98 623.7 86 645.2 75.8C666.7 65.7 688.3 57.3 709.8 57.3C731.3 57.3 752.7 65.7 774.2 71.8C795.7 78 817.3 82 838.8 87.2C860.3 92.3 881.7 98.7 903.2 98.5C924.7 98.3 946.3 91.7 967.8 81.2C989.3 70.7 1010.7 56.3 1032.2 61.2C1053.7 66 1075.3 90 1096.8 89.8C1118.3 89.7 1139.7 65.3 1161.2 65.3C1182.7 65.3 1204.3 89.7 1225.8 101.8C1247.3 114 1268.7 114 1290.2 100.3C1311.7 86.7 1333.3 59.3 1354.8 47.8C1376.3 36.3 1397.7 40.7 1419.2 53.3C1440.7 66 1462.3 87 1483.8 87.5C1505.3 88 1526.7 68 1548.2 68.5C1569.7 69 1591.3 90 1612.8 90.2C1634.3 90.3 1655.7 69.7 1677.2 70.8C1698.7 72 1720.3 95 1741.8 102C1763.3 109 1784.7 100 1806.2 90.5C1827.7 81 1849.3 71 1870.8 61.2C1892.3 51.3 1913.7 41.7 1935.2 39.2C1956.7 36.7 1978.3 41.3 1989.2 43.7L2000 46L2000 151L1989.2 151C1978.3 151 1956.7 151 1935.2 151C1913.7 151 1892.3 151 1870.8 151C1849.3 151 1827.7 151 1806.2 151C1784.7 151 1763.3 151 1741.8 151C1720.3 151 1698.7 151 1677.2 151C1655.7 151 1634.3 151 1612.8 151C1591.3 151 1569.7 151 1548.2 151C1526.7 151 1505.3 151 1483.8 151C1462.3 151 1440.7 151 1419.2 151C1397.7 151 1376.3 151 1354.8 151C1333.3 151 1311.7 151 1290.2 151C1268.7 151 1247.3 151 1225.8 151C1204.3 151 1182.7 151 1161.2 151C1139.7 151 1118.3 151 1096.8 151C1075.3 151 1053.7 151 1032.2 151C1010.7 151 989.3 151 967.8 151C946.3 151 924.7 151 903.2 151C881.7 151 860.3 151 838.8 151C817.3 151 795.7 151 774.2 151C752.7 151 731.3 151 709.8 151C688.3 151 666.7 151 645.2 151C623.7 151 602.3 151 580.8 151C559.3 151 537.7 151 516.2 151C494.7 151 473.3 151 451.8 151C430.3 151 408.7 151 387.2 151C365.7 151 344.3 151 322.8 151C301.3 151 279.7 151 258.2 151C236.7 151 215.3 151 193.8 151C172.3 151 150.7 151 129.2 151C107.7 151 86.3 151 64.8 151C43.3 151 21.7 151 10.8 151L0 151Z" fill="#f6e7c1" stroke-linecap="round" stroke-linejoin="miter"></path></svg>