<svg id="visual" viewBox="0 0 2000 200" width="2000" height="200" xmlns="http://www.w3.org/2000/svg" xmlns:xlink="http://www.w3.org/1999/xlink" version="1.1"><rect x="0" y="0" width="2000" height="200" fill="#fff"></rect><path d="M0 55L10.8 70.7C21.7 86.3 43.3 117.7 64.8 130.3C86.3 143 107.7 137 129.2 126C150.7 115 172.3 99 193.8 102.7C215.3 106.3 236.7 129.7 258.2 134.8C279.7 140 301.3 127 322.8 111.8C344.3 96.7 365.7 79.3 387.2 82.2C408.7 85 430.3 108 451.8 122.8C473.3 137.7 494.7 144.3 516.2 130.3C537.7 116.3 559.3 81.7 580.8 63.3C602.3 45 623.7 43 645.2 55.8C666.7 68.7 688.3 96.3 709.8 102.3C731.3 108.3 752.7 92.7 774.2 86C795.7 79.3 817.3 81.7 838.8 90.2C860.3 98.7 881.7 113.3 903.2 123.8C924.7 134.3 946.3 140.7 967.8 143.8C989.3 147 1010.7 147 1032.2 138.3C1053.7 129.7 1075.3 112.3 1096.8 113.7C1118.3 115 1139.7 135 1161.2 136.3C1182.7 137.7 1204.3 120.3 1225.8 103.7C1247.3 87 1268.7 71 1290.2 73.2C1311.7 75.3 1333.3 95.7 1354.8 99.8C1376.3 104 1397.7 92 1419.2 79.8C1440.7 67.7 1462.3 55.3 1483.8 58.2C1505.3 61 1526.7 79 1548.2 92.3C1569.7 105.7 1591.3 114.3 1612.8 108.5C1634.3 102.7 1655.7 82.3 1677.2 87.3C1698.7 92.3 1720.3 122.7 1741.8 131.8C1763.3 141 1784.7 129 1806.2 114.5C1827.7 100 1849.3 83 1870.8 78.2C1892.3 73.3 1913.7 80.7 1935.2 90.3C1956.7 100 1978.3 112 1989.2 118L2000 124L2000 0L1989.2 0C1978.3 0 1956.7 0 1935.2 0C1913.7 0 1892.3 0 1870.8 0C1849.3 0 1827.7 0 1806.2 0C1784.7 0 1763.3 0 1741.8 0C1720.3 0 1698.7 0 1677.2 0C1655.7 0 1634.3 0 1612.8 0C1591.3 0 1569.7 0 1548.2 0C1526.7 0 1505.3 0 1483.8 0C1462.3 0 1440.7 0 1419.2 0C1397.7 0 1376.3 0 1354.8 0C1333.3 0 1311.7 0 1290.2 0C1268.7 0 1247.3 0 1225.8 0C1204.3 0 1182.7 0 1161.2 0C1139.7 0 1118.3 0 1096.8 0C1075.3 0 1053.7 0 1032.2 0C1010.7 0 989.3 0 967.8 0C946.3 0 924.7 0 903.2 0C881.7 0 860.3 0 838.8 0C817.3 0 795.7 0 774.2 0C752.7 0 731.3 0 709.8 0C688.3 0 666.7 0 645.2 0C623.7 0 602.3 0 580.8 0C559.3 0 537.7 0 516.2 0C494.7 0 473.3 0 451.8 0C430.3 0 408.7 0 387.2 0C365.7 0 344.3 0 322.8 0C301.3 0 279.7 0 258.2 0C236.7 0 215.3 0 193.8 0C172.3 0 150.7 0 129.2 0C107.7 0 86.3 0 64.8 0C43.3 0 21.7 0 10.8 0L0 0Z" fill="#f6e4d4" stroke-linecap="round" stroke-linejoin="miter"></path></svg>