<svg version="1.2" xmlns="http://www.w3.org/2000/svg" viewBox="0 0 2000 174" width="2000" height="174">
	<title>wave-top-svg</title>
	<style>
		.s0 { fill: #ffffff } 
		.s1 { fill: #f6e4d4 } 
	</style>
	<path id="Layer" class="s0" d="m0-26h2000v200h-2000z"/>
	<path id="Layer" class="s1" d="m0 117l10.8-15.7c10.9-15.6 32.5-47 54-59.6 21.5-12.7 42.9-6.7 64.4 4.3 21.5 11 43.1 27 64.6 23.3 21.5-3.6 42.9-27 64.4-32.1 21.5-5.2 43.1 7.8 64.6 23 21.5 15.1 42.9 32.5 64.4 29.6 21.5-2.8 43.1-25.8 64.6-40.6 21.5-14.9 42.9-21.5 64.4-7.5 21.5 14 43.1 48.6 64.6 67 21.5 18.3 42.9 20.3 64.4 7.5 21.5-12.9 43.1-40.5 64.6-46.5 21.5-6 42.9 9.6 64.4 16.3 21.5 6.7 43.1 4.3 64.6-4.2 21.5-8.5 42.9-23.1 64.4-33.6 21.5-10.5 43.1-16.9 64.6-20 21.5-3.2 42.9-3.2 64.4 5.5 21.5 8.6 43.1 26 64.6 24.6 21.5-1.3 42.9-21.3 64.4-22.6 21.5-1.4 43.1 16 64.6 32.6 21.5 16.7 42.9 32.7 64.4 30.5 21.5-2.1 43.1-22.5 64.6-26.6 21.5-4.2 42.9 7.8 64.4 20 21.5 12.1 43.1 24.5 64.6 21.6 21.5-2.8 42.9-20.8 64.4-34.1 21.5-13.4 43.1-22 64.6-16.2 21.5 5.8 42.9 26.2 64.4 21.2 21.5-5 43.1-35.4 64.6-44.5 21.5-9.2 42.9 2.8 64.4 17.3 21.5 14.5 43.1 31.5 64.6 36.3 21.5 4.9 42.9-2.5 64.4-12.1 21.5-9.7 43.1-21.7 54-27.7l10.8-6v127h-10.8c-10.9 0-32.5 0-54 0-21.5 0-42.9 0-64.4 0-21.5 0-43.1 0-64.6 0-21.5 0-42.9 0-64.4 0-21.5 0-43.1 0-64.6 0-21.5 0-42.9 0-64.4 0-21.5 0-43.1 0-64.6 0-21.5 0-42.9 0-64.4 0-21.5 0-43.1 0-64.6 0-21.5 0-42.9 0-64.4 0-21.5 0-43.1 0-64.6 0-21.5 0-42.9 0-64.4 0-21.5 0-43.1 0-64.6 0-21.5 0-42.9 0-64.4 0-21.5 0-43.1 0-64.6 0-21.5 0-42.9 0-64.4 0-21.5 0-43.1 0-64.6 0-21.5 0-42.9 0-64.4 0-21.5 0-43.1 0-64.6 0-21.5 0-42.9 0-64.4 0-21.5 0-43.1 0-64.6 0-21.5 0-42.9 0-64.4 0-21.5 0-43.1 0-64.6 0-21.5 0-42.9 0-64.4 0-21.5 0-43.1 0-64.6 0-21.5 0-42.9 0-64.4 0-21.5 0-43.1 0-64.6 0-21.5 0-42.9 0-64.4 0-21.5 0-43.1 0-64.6 0-21.5 0-42.9 0-64.4 0-21.5 0-43.1 0-54 0h-10.8z"/>
</svg>